<?xml version="1.0" encoding="UTF-8"?>
<svg width="250px" height="250px" viewBox="0 0 250 250" version="1.1" xmlns="http://www.w3.org/2000/svg" xmlns:xlink="http://www.w3.org/1999/xlink">
    <!-- Generator: Sketch 43.2 (39069) - http://www.bohemiancoding.com/sketch -->
    <title>Logo</title>
    <desc>Created with Sketch.</desc>
    <defs></defs>
    <g id="Page-1" stroke="none" stroke-width="1" fill="none" fill-rule="evenodd">
        <g id="Artboard-3" transform="translate(-69.000000, -25.000000)" fill="#222222">
            <path d="M293.727398,275 L300,250 L250,250 L243.733641,275 L293.727398,275 Z M125.227106,150 L119,175 L69,175 L87.7312687,100 L118.95005,100 L162.656344,100 L150.168831,150 L175.143856,150 L193.875125,75 L200.118881,50 L250.068931,50 L243.825175,75 L225.093906,150 L250.068931,150 L262.016019,102.16386 C294.731889,110.211335 319,139.768773 319,175 L269.04995,175 C269.04995,163.199973 260.882854,153.309382 249.898299,150.683212 L250.068931,150 L234.58442,150 L225.093906,150 L200.118881,250 L175.143856,250 L144.174825,250 L144.174825,200 L162.656344,200 L175.143856,150 L125.227106,150 Z M144.174825,250 C102.794849,250 69,216.421356 69,175 L119,175 C119,188.807119 130.3815,200 144.174825,200 L144.174825,250 Z M300,250 L250,250 L269,175 L319,175 L300,250 Z M250.068931,50 L200.118881,50 L206.362637,25 L256.312687,25 L250.068931,50 Z" id="Logo"></path>
        </g>
    </g>
</svg>