<?xml version="1.0" encoding="UTF-8"?>
<svg width="744px" height="565px" viewBox="0 0 744 565" version="1.1" xmlns="http://www.w3.org/2000/svg"
>
    <!-- Generator: Sketch 43.2 (39069) - http://www.bohemiancoding.com/sketch -->
    <title>Black Night</title>
    <desc>Created with Sketch.</desc>
    <defs>
        <linearGradient x1="50%" y1="2.33224506%" x2="40.4070497%" y2="116.008517%" id="linearGradient-1">
            <stop stop-color="#FBFBFB" stop-opacity="0.05" offset="0%"/>
            <stop stop-color="#FFFFFF" stop-opacity="0.3" offset="100%"/>
        </linearGradient>
        <linearGradient x1="1.46484375%" y1="1.46484375%" x2="100%" y2="100%" id="linearGradient-2">
            <stop stop-color="#F7F7F7" offset="0%"/>
            <stop stop-color="#A5A5A5" offset="100%"/>
        </linearGradient>
        <linearGradient x1="0%" y1="0%" x2="94.0473677%" y2="102.840051%" id="linearGradient-3">
            <stop stop-color="#84899F" offset="0%"/>
            <stop stop-color="#5B6072" offset="100%"/>
        </linearGradient>
        <linearGradient x1="0%" y1="0%" x2="100%" y2="100%" id="linearGradient-4">
            <stop stop-color="#4C5165" offset="0%"/>
            <stop stop-color="#3A3E51" offset="100%"/>
        </linearGradient>
        <linearGradient x1="0%" y1="0%" x2="97.5725446%" y2="97.5725446%" id="linearGradient-5">
            <stop stop-color="#E3D6B7" offset="0%"/>
            <stop stop-color="#D8C287" offset="100%"/>
        </linearGradient>
        <linearGradient x1="0%" y1="0%" x2="94.0473677%" y2="102.840051%" id="linearGradient-6">
            <stop stop-color="#8B90A3" offset="0%"/>
            <stop stop-color="#5B6072" offset="100%"/>
        </linearGradient>
        <linearGradient x1="0%" y1="0%" x2="85.7431084%" y2="134.81522%" id="linearGradient-7">
            <stop stop-color="#8B90A3" offset="0%"/>
            <stop stop-color="#5B6072" offset="100%"/>
        </linearGradient>
        <linearGradient x1="65.6997708%" y1="-235.481771%" x2="61.8343758%" y2="100%" id="linearGradient-8">
            <stop stop-color="#8B90A3" offset="0%"/>
            <stop stop-color="#5B6072" offset="100%"/>
        </linearGradient>
        <linearGradient x1="-3.25376157%" y1="1.71800358%" x2="55.8043981%" y2="131.83967%" id="linearGradient-9">
            <stop stop-color="#8B90A3" offset="0%"/>
            <stop stop-color="#5B6072" offset="100%"/>
        </linearGradient>
        <linearGradient x1="50%" y1="-204.142678%" x2="61.8343758%" y2="100%" id="linearGradient-10">
            <stop stop-color="#8B90A3" offset="0%"/>
            <stop stop-color="#5B6072" offset="100%"/>
        </linearGradient>
    </defs>
    <g id="Page-1" stroke="none" stroke-width="1" fill="none" fill-rule="evenodd">
        <g id="Artboard" transform="translate(-1955.000000, -198.000000)">
            <g id="Black-Night" transform="translate(1934.000000, 132.680579)">
                <path d="M107.984332,360.560383 C119.282334,414.454347 67.1240621,408.202826 49.4197441,485.453022 C31.7154261,562.703219 117.935479,633.256432 285.191818,616.451589 C452.448158,599.646746 802.071403,611.701117 769.880435,345.40965 C737.689468,79.1181835 619.481964,218.53034 564.388045,172.986551 C509.294126,127.442763 485.671122,64.4715874 419.733642,64.4715874 C353.796161,64.4715874 316.062444,110.787435 257.414505,135.88917 C198.766566,160.990906 105.762001,122.0028 72.8414262,191.851058 C39.9208511,261.699316 96.6863305,306.666419 107.984332,360.560383 Z"
                      id="Path-2" fill="url(#linearGradient-1)"
                      transform="translate(409.551841, 341.712367) rotate(11.000000) translate(-409.551841, -341.712367) "/>
                <path d="M521.021855,69.6286726 C516.122581,68.3840724 510.990531,67.722646 505.703972,67.722646 C471.456192,67.722646 443.692881,95.4814166 443.692881,129.723595 C443.692881,163.965774 471.456192,191.724545 505.703972,191.724545 C516.736893,191.724545 527.096852,188.843723 536.072435,183.793377 C509.232867,176.975115 489.379226,152.654939 489.379226,123.698454 C489.379226,100.487392 502.135931,80.2553303 521.021855,69.6286726 Z"
                      id="Combined-Shape" fill="url(#linearGradient-2)"
                      transform="translate(489.882658, 129.723595) rotate(-8.000000) translate(-489.882658, -129.723595) "/>
                <g id="Group-4" transform="translate(512.644333, 223.226487)">
                    <rect id="Rectangle-8" fill="url(#linearGradient-3)" x="0" y="0" width="198.577692"
                          height="363.05383" rx="5"/>
                    <path d="M46.5136937,45.3441286 C46.5136937,42.5800461 48.7425044,40.3393144 51.5183516,40.3393144 L80.8667767,40.3393144 C83.6307729,40.3393144 85.8714345,42.5806105 85.8714345,45.3441286 L85.8714345,73.9199315 C85.8714345,76.684014 83.6426238,78.9247456 80.8667767,78.9247456 L51.5183516,78.9247456 C48.7543554,78.9247456 46.5136937,76.6834496 46.5136937,73.9199315 L46.5136937,45.3441286 Z M109.128281,45.3441286 C109.128281,42.5800461 111.357092,40.3393144 114.132939,40.3393144 L143.481364,40.3393144 C146.245361,40.3393144 148.486022,42.5806105 148.486022,45.3441286 L148.486022,73.9199315 C148.486022,76.684014 146.257212,78.9247456 143.481364,78.9247456 L114.132939,78.9247456 C111.368943,78.9247456 109.128281,76.6834496 109.128281,73.9199315 L109.128281,45.3441286 Z M46.5136937,106.730042 C46.5136937,103.965959 48.7425044,101.725228 51.5183516,101.725228 L80.8667767,101.725228 C83.6307729,101.725228 85.8714345,103.966524 85.8714345,106.730042 L85.8714345,135.305845 C85.8714345,138.069927 83.6426238,140.310659 80.8667767,140.310659 L51.5183516,140.310659 C48.7543554,140.310659 46.5136937,138.069363 46.5136937,135.305845 L46.5136937,106.730042 Z M109.128281,106.730042 C109.128281,103.965959 111.357092,101.725228 114.132939,101.725228 L143.481364,101.725228 C146.245361,101.725228 148.486022,103.966524 148.486022,106.730042 L148.486022,135.305845 C148.486022,138.069927 146.257212,140.310659 143.481364,140.310659 L114.132939,140.310659 C111.368943,140.310659 109.128281,138.069363 109.128281,135.305845 L109.128281,106.730042 Z M46.5136937,168.115955 C46.5136937,165.351873 48.7425044,163.111141 51.5183516,163.111141 L80.8667767,163.111141 C83.6307729,163.111141 85.8714345,165.352437 85.8714345,168.115955 L85.8714345,196.691758 C85.8714345,199.455841 83.6426238,201.696572 80.8667767,201.696572 L51.5183516,201.696572 C48.7543554,201.696572 46.5136937,199.455276 46.5136937,196.691758 L46.5136937,168.115955 Z M109.128281,168.115955 C109.128281,165.351873 111.357092,163.111141 114.132939,163.111141 L143.481364,163.111141 C146.245361,163.111141 148.486022,165.352437 148.486022,168.115955 L148.486022,196.691758 C148.486022,199.455841 146.257212,201.696572 143.481364,201.696572 L114.132939,201.696572 C111.368943,201.696572 109.128281,199.455276 109.128281,196.691758 L109.128281,168.115955 Z M46.5136937,229.501868 C46.5136937,226.737786 48.7425044,224.497054 51.5183516,224.497054 L80.8667767,224.497054 C83.6307729,224.497054 85.8714345,226.73835 85.8714345,229.501868 L85.8714345,258.077671 C85.8714345,260.841754 83.6426238,263.082485 80.8667767,263.082485 L51.5183516,263.082485 C48.7543554,263.082485 46.5136937,260.841189 46.5136937,258.077671 L46.5136937,229.501868 Z M109.128281,229.501868 C109.128281,226.737786 111.357092,224.497054 114.132939,224.497054 L143.481364,224.497054 C146.245361,224.497054 148.486022,226.73835 148.486022,229.501868 L148.486022,258.077671 C148.486022,260.841754 146.257212,263.082485 143.481364,263.082485 L114.132939,263.082485 C111.368943,263.082485 109.128281,260.841189 109.128281,258.077671 L109.128281,229.501868 Z M50.0916702,290.887782 C50.0916702,288.123699 52.3204809,285.882968 55.096328,285.882968 L84.4447531,285.882968 C87.2087493,285.882968 89.449411,288.124264 89.449411,290.887782 L89.449411,319.463585 C89.449411,322.227667 87.2206003,324.468399 84.4447531,324.468399 L55.096328,324.468399 C52.3323318,324.468399 50.0916702,322.227103 50.0916702,319.463585 L50.0916702,290.887782 Z M112.706258,290.887782 C112.706258,288.123699 114.935069,285.882968 117.710916,285.882968 L147.059341,285.882968 C149.823337,285.882968 152.063999,288.124264 152.063999,290.887782 L152.063999,319.463585 C152.063999,322.227667 149.835188,324.468399 147.059341,324.468399 L117.710916,324.468399 C114.946919,324.468399 112.706258,322.227103 112.706258,319.463585 L112.706258,290.887782 Z"
                          id="Combined-Shape" fill="url(#linearGradient-4)"/>
                    <rect id="Rectangle-9" fill="url(#linearGradient-5)" x="46.5136937" y="40.3393144"
                          width="39.3577408" height="38.5854312" rx="5"/>
                </g>
                <g id="Group-5" transform="translate(192.853360, 119.747376)">
                    <rect id="Rectangle-8" fill="url(#linearGradient-6)" x="0" y="0" width="266.121327"
                          height="484.071773" rx="5"/>
                    <path d="M52.0308842,72.0604095 C44.1266369,72.0604095 37.7189784,65.7784873 37.7189784,58.0293436 C37.7189784,50.2801999 44.1266369,43.9982777 52.0308842,43.9982777 C59.9351315,43.9982777 66.3427899,50.2801999 66.3427899,58.0293436 C66.3427899,65.7784873 59.9351315,72.0604095 52.0308842,72.0604095 Z M105.700531,72.0604095 C97.7962835,72.0604095 91.388625,65.7784873 91.388625,58.0293436 C91.388625,50.2801999 97.7962835,43.9982777 105.700531,43.9982777 C113.604778,43.9982777 120.012437,50.2801999 120.012437,58.0293436 C120.012437,65.7784873 113.604778,72.0604095 105.700531,72.0604095 Z M159.370177,72.0604095 C151.46593,72.0604095 145.058272,65.7784873 145.058272,58.0293436 C145.058272,50.2801999 151.46593,43.9982777 159.370177,43.9982777 C167.274425,43.9982777 173.682083,50.2801999 173.682083,58.0293436 C173.682083,65.7784873 167.274425,72.0604095 159.370177,72.0604095 Z M213.039824,72.0604095 C205.135577,72.0604095 198.727918,65.7784873 198.727918,58.0293436 C198.727918,50.2801999 205.135577,43.9982777 213.039824,43.9982777 C220.944071,43.9982777 227.35173,50.2801999 227.35173,58.0293436 C227.35173,65.7784873 220.944071,72.0604095 213.039824,72.0604095 Z M52.0308842,124.676907 C44.1266369,124.676907 37.7189784,118.394984 37.7189784,110.645841 C37.7189784,102.896697 44.1266369,96.6147748 52.0308842,96.6147748 C59.9351315,96.6147748 66.3427899,102.896697 66.3427899,110.645841 C66.3427899,118.394984 59.9351315,124.676907 52.0308842,124.676907 Z M105.700531,124.676907 C97.7962835,124.676907 91.388625,118.394984 91.388625,110.645841 C91.388625,102.896697 97.7962835,96.6147748 105.700531,96.6147748 C113.604778,96.6147748 120.012437,102.896697 120.012437,110.645841 C120.012437,118.394984 113.604778,124.676907 105.700531,124.676907 Z M159.370177,124.676907 C151.46593,124.676907 145.058272,118.394984 145.058272,110.645841 C145.058272,102.896697 151.46593,96.6147748 159.370177,96.6147748 C167.274425,96.6147748 173.682083,102.896697 173.682083,110.645841 C173.682083,118.394984 167.274425,124.676907 159.370177,124.676907 Z M213.039824,124.676907 C205.135577,124.676907 198.727918,118.394984 198.727918,110.645841 C198.727918,102.896697 205.135577,96.6147748 213.039824,96.6147748 C220.944071,96.6147748 227.35173,102.896697 227.35173,110.645841 C227.35173,118.394984 220.944071,124.676907 213.039824,124.676907 Z M52.0308842,177.293404 C44.1266369,177.293404 37.7189784,171.011482 37.7189784,163.262338 C37.7189784,155.513194 44.1266369,149.231272 52.0308842,149.231272 C59.9351315,149.231272 66.3427899,155.513194 66.3427899,163.262338 C66.3427899,171.011482 59.9351315,177.293404 52.0308842,177.293404 Z M105.700531,177.293404 C97.7962835,177.293404 91.388625,171.011482 91.388625,163.262338 C91.388625,155.513194 97.7962835,149.231272 105.700531,149.231272 C113.604778,149.231272 120.012437,155.513194 120.012437,163.262338 C120.012437,171.011482 113.604778,177.293404 105.700531,177.293404 Z M159.370177,177.293404 C151.46593,177.293404 145.058272,171.011482 145.058272,163.262338 C145.058272,155.513194 151.46593,149.231272 159.370177,149.231272 C167.274425,149.231272 173.682083,155.513194 173.682083,163.262338 C173.682083,171.011482 167.274425,177.293404 159.370177,177.293404 Z M213.039824,177.293404 C205.135577,177.293404 198.727918,171.011482 198.727918,163.262338 C198.727918,155.513194 205.135577,149.231272 213.039824,149.231272 C220.944071,149.231272 227.35173,155.513194 227.35173,163.262338 C227.35173,171.011482 220.944071,177.293404 213.039824,177.293404 Z M52.0308842,229.909901 C44.1266369,229.909901 37.7189784,223.627979 37.7189784,215.878835 C37.7189784,208.129691 44.1266369,201.847769 52.0308842,201.847769 C59.9351315,201.847769 66.3427899,208.129691 66.3427899,215.878835 C66.3427899,223.627979 59.9351315,229.909901 52.0308842,229.909901 Z M105.700531,229.909901 C97.7962835,229.909901 91.388625,223.627979 91.388625,215.878835 C91.388625,208.129691 97.7962835,201.847769 105.700531,201.847769 C113.604778,201.847769 120.012437,208.129691 120.012437,215.878835 C120.012437,223.627979 113.604778,229.909901 105.700531,229.909901 Z M159.370177,229.909901 C151.46593,229.909901 145.058272,223.627979 145.058272,215.878835 C145.058272,208.129691 151.46593,201.847769 159.370177,201.847769 C167.274425,201.847769 173.682083,208.129691 173.682083,215.878835 C173.682083,223.627979 167.274425,229.909901 159.370177,229.909901 Z M213.039824,229.909901 C205.135577,229.909901 198.727918,223.627979 198.727918,215.878835 C198.727918,208.129691 205.135577,201.847769 213.039824,201.847769 C220.944071,201.847769 227.35173,208.129691 227.35173,215.878835 C227.35173,223.627979 220.944071,229.909901 213.039824,229.909901 Z M52.0308842,282.526398 C44.1266369,282.526398 37.7189784,276.244476 37.7189784,268.495332 C37.7189784,260.746188 44.1266369,254.464266 52.0308842,254.464266 C59.9351315,254.464266 66.3427899,260.746188 66.3427899,268.495332 C66.3427899,276.244476 59.9351315,282.526398 52.0308842,282.526398 Z M105.700531,282.526398 C97.7962835,282.526398 91.388625,276.244476 91.388625,268.495332 C91.388625,260.746188 97.7962835,254.464266 105.700531,254.464266 C113.604778,254.464266 120.012437,260.746188 120.012437,268.495332 C120.012437,276.244476 113.604778,282.526398 105.700531,282.526398 Z M159.370177,282.526398 C151.46593,282.526398 145.058272,276.244476 145.058272,268.495332 C145.058272,260.746188 151.46593,254.464266 159.370177,254.464266 C167.274425,254.464266 173.682083,260.746188 173.682083,268.495332 C173.682083,276.244476 167.274425,282.526398 159.370177,282.526398 Z M213.039824,282.526398 C205.135577,282.526398 198.727918,276.244476 198.727918,268.495332 C198.727918,260.746188 205.135577,254.464266 213.039824,254.464266 C220.944071,254.464266 227.35173,260.746188 227.35173,268.495332 C227.35173,276.244476 220.944071,282.526398 213.039824,282.526398 Z M52.0308842,335.142895 C44.1266369,335.142895 37.7189784,328.860973 37.7189784,321.111829 C37.7189784,313.362685 44.1266369,307.080763 52.0308842,307.080763 C59.9351315,307.080763 66.3427899,313.362685 66.3427899,321.111829 C66.3427899,328.860973 59.9351315,335.142895 52.0308842,335.142895 Z M105.700531,335.142895 C97.7962835,335.142895 91.388625,328.860973 91.388625,321.111829 C91.388625,313.362685 97.7962835,307.080763 105.700531,307.080763 C113.604778,307.080763 120.012437,313.362685 120.012437,321.111829 C120.012437,328.860973 113.604778,335.142895 105.700531,335.142895 Z M159.370177,335.142895 C151.46593,335.142895 145.058272,328.860973 145.058272,321.111829 C145.058272,313.362685 151.46593,307.080763 159.370177,307.080763 C167.274425,307.080763 173.682083,313.362685 173.682083,321.111829 C173.682083,328.860973 167.274425,335.142895 159.370177,335.142895 Z M213.039824,335.142895 C205.135577,335.142895 198.727918,328.860973 198.727918,321.111829 C198.727918,313.362685 205.135577,307.080763 213.039824,307.080763 C220.944071,307.080763 227.35173,313.362685 227.35173,321.111829 C227.35173,328.860973 220.944071,335.142895 213.039824,335.142895 Z M52.0308842,387.759392 C44.1266369,387.759392 37.7189784,381.47747 37.7189784,373.728326 C37.7189784,365.979182 44.1266369,359.69726 52.0308842,359.69726 C59.9351315,359.69726 66.3427899,365.979182 66.3427899,373.728326 C66.3427899,381.47747 59.9351315,387.759392 52.0308842,387.759392 Z M105.700531,387.759392 C97.7962835,387.759392 91.388625,381.47747 91.388625,373.728326 C91.388625,365.979182 97.7962835,359.69726 105.700531,359.69726 C113.604778,359.69726 120.012437,365.979182 120.012437,373.728326 C120.012437,381.47747 113.604778,387.759392 105.700531,387.759392 Z M159.370177,387.759392 C151.46593,387.759392 145.058272,381.47747 145.058272,373.728326 C145.058272,365.979182 151.46593,359.69726 159.370177,359.69726 C167.274425,359.69726 173.682083,365.979182 173.682083,373.728326 C173.682083,381.47747 167.274425,387.759392 159.370177,387.759392 Z M213.039824,387.759392 C205.135577,387.759392 198.727918,381.47747 198.727918,373.728326 C198.727918,365.979182 205.135577,359.69726 213.039824,359.69726 C220.944071,359.69726 227.35173,365.979182 227.35173,373.728326 C227.35173,381.47747 220.944071,387.759392 213.039824,387.759392 Z M52.0308842,440.375889 C44.1266369,440.375889 37.7189784,434.093967 37.7189784,426.344823 C37.7189784,418.59568 44.1266369,412.313757 52.0308842,412.313757 C59.9351315,412.313757 66.3427899,418.59568 66.3427899,426.344823 C66.3427899,434.093967 59.9351315,440.375889 52.0308842,440.375889 Z M105.700531,440.375889 C97.7962835,440.375889 91.388625,434.093967 91.388625,426.344823 C91.388625,418.59568 97.7962835,412.313757 105.700531,412.313757 C113.604778,412.313757 120.012437,418.59568 120.012437,426.344823 C120.012437,434.093967 113.604778,440.375889 105.700531,440.375889 Z M159.370177,440.375889 C151.46593,440.375889 145.058272,434.093967 145.058272,426.344823 C145.058272,418.59568 151.46593,412.313757 159.370177,412.313757 C167.274425,412.313757 173.682083,418.59568 173.682083,426.344823 C173.682083,434.093967 167.274425,440.375889 159.370177,440.375889 Z M213.039824,440.375889 C205.135577,440.375889 198.727918,434.093967 198.727918,426.344823 C198.727918,418.59568 205.135577,412.313757 213.039824,412.313757 C220.944071,412.313757 227.35173,418.59568 227.35173,426.344823 C227.35173,434.093967 220.944071,440.375889 213.039824,440.375889 Z"
                          id="Combined-Shape" fill="url(#linearGradient-4)"/>
                    <ellipse id="Oval-4" fill="url(#linearGradient-5)" cx="105.700531" cy="163.262338" rx="14.3119058"
                             ry="14.0310659"/>
                </g>
                <g id="Group-5" transform="translate(369.525275, 286.366283)">
                    <rect id="Rectangle-8" fill="url(#linearGradient-7)" x="17.8898822" y="7.01553295"
                          width="143.119058" height="336.745581" rx="5"/>
                    <rect id="Rectangle-8" fill="url(#linearGradient-8)" x="0" y="0" width="178.898822"
                          height="26.3082485" rx="5"/>
                    <path d="M42.7481755,47.774211 C42.7481755,43.6059997 46.1341255,40.2269968 50.2919712,40.2269968 C54.4582945,40.2269968 57.8357669,43.5972583 57.8357669,47.774211 L57.8357669,59.0787492 C57.8357669,63.2469605 54.4498169,66.6259634 50.2919712,66.6259634 C46.1256479,66.6259634 42.7481755,63.2557019 42.7481755,59.0787492 L42.7481755,47.774211 Z M69.1514604,47.774211 C69.1514604,43.6059997 72.5374104,40.2269968 76.6952561,40.2269968 C80.8615794,40.2269968 84.2390518,43.5972583 84.2390518,47.774211 L84.2390518,59.0787492 C84.2390518,63.2469605 80.8531018,66.6259634 76.6952561,66.6259634 C72.5289328,66.6259634 69.1514604,63.2557019 69.1514604,59.0787492 L69.1514604,47.774211 Z M95.5547453,47.774211 C95.5547453,43.6059997 98.9406953,40.2269968 103.098541,40.2269968 C107.264864,40.2269968 110.642337,43.5972583 110.642337,47.774211 L110.642337,59.0787492 C110.642337,63.2469605 107.256387,66.6259634 103.098541,66.6259634 C98.9322177,66.6259634 95.5547453,63.2557019 95.5547453,59.0787492 L95.5547453,47.774211 Z M121.95803,47.774211 C121.95803,43.6059997 125.34398,40.2269968 129.501826,40.2269968 C133.668149,40.2269968 137.045622,43.5972583 137.045622,47.774211 L137.045622,59.0787492 C137.045622,63.2469605 133.659672,66.6259634 129.501826,66.6259634 C125.335503,66.6259634 121.95803,63.2557019 121.95803,59.0787492 L121.95803,47.774211 Z M42.7481755,96.8008634 C42.7481755,92.632652 46.1341255,89.2536491 50.2919712,89.2536491 C54.4582945,89.2536491 57.8357669,92.6239107 57.8357669,96.8008634 L57.8357669,108.105402 C57.8357669,112.273613 54.4498169,115.652616 50.2919712,115.652616 C46.1256479,115.652616 42.7481755,112.282354 42.7481755,108.105402 L42.7481755,96.8008634 Z M69.1514604,96.8008634 C69.1514604,92.632652 72.5374104,89.2536491 76.6952561,89.2536491 C80.8615794,89.2536491 84.2390518,92.6239107 84.2390518,96.8008634 L84.2390518,108.105402 C84.2390518,112.273613 80.8531018,115.652616 76.6952561,115.652616 C72.5289328,115.652616 69.1514604,112.282354 69.1514604,108.105402 L69.1514604,96.8008634 Z M95.5547453,96.8008634 C95.5547453,92.632652 98.9406953,89.2536491 103.098541,89.2536491 C107.264864,89.2536491 110.642337,92.6239107 110.642337,96.8008634 L110.642337,108.105402 C110.642337,112.273613 107.256387,115.652616 103.098541,115.652616 C98.9322177,115.652616 95.5547453,112.282354 95.5547453,108.105402 L95.5547453,96.8008634 Z M121.95803,96.8008634 C121.95803,92.632652 125.34398,89.2536491 129.501826,89.2536491 C133.668149,89.2536491 137.045622,92.6239107 137.045622,96.8008634 L137.045622,108.105402 C137.045622,112.273613 133.659672,115.652616 129.501826,115.652616 C125.335503,115.652616 121.95803,112.282354 121.95803,108.105402 L121.95803,96.8008634 Z M42.7481755,145.827516 C42.7481755,141.659304 46.1341255,138.280301 50.2919712,138.280301 C54.4582945,138.280301 57.8357669,141.650563 57.8357669,145.827516 L57.8357669,157.132054 C57.8357669,161.300265 54.4498169,164.679268 50.2919712,164.679268 C46.1256479,164.679268 42.7481755,161.309007 42.7481755,157.132054 L42.7481755,145.827516 Z M69.1514604,145.827516 C69.1514604,141.659304 72.5374104,138.280301 76.6952561,138.280301 C80.8615794,138.280301 84.2390518,141.650563 84.2390518,145.827516 L84.2390518,157.132054 C84.2390518,161.300265 80.8531018,164.679268 76.6952561,164.679268 C72.5289328,164.679268 69.1514604,161.309007 69.1514604,157.132054 L69.1514604,145.827516 Z M95.5547453,145.827516 C95.5547453,141.659304 98.9406953,138.280301 103.098541,138.280301 C107.264864,138.280301 110.642337,141.650563 110.642337,145.827516 L110.642337,157.132054 C110.642337,161.300265 107.256387,164.679268 103.098541,164.679268 C98.9322177,164.679268 95.5547453,161.309007 95.5547453,157.132054 L95.5547453,145.827516 Z M121.95803,145.827516 C121.95803,141.659304 125.34398,138.280301 129.501826,138.280301 C133.668149,138.280301 137.045622,141.650563 137.045622,145.827516 L137.045622,157.132054 C137.045622,161.300265 133.659672,164.679268 129.501826,164.679268 C125.335503,164.679268 121.95803,161.309007 121.95803,157.132054 L121.95803,145.827516 Z M42.7481755,194.854168 C42.7481755,190.685957 46.1341255,187.306954 50.2919712,187.306954 C54.4582945,187.306954 57.8357669,190.677215 57.8357669,194.854168 L57.8357669,206.158706 C57.8357669,210.326918 54.4498169,213.70592 50.2919712,213.70592 C46.1256479,213.70592 42.7481755,210.335659 42.7481755,206.158706 L42.7481755,194.854168 Z M69.1514604,194.854168 C69.1514604,190.685957 72.5374104,187.306954 76.6952561,187.306954 C80.8615794,187.306954 84.2390518,190.677215 84.2390518,194.854168 L84.2390518,206.158706 C84.2390518,210.326918 80.8531018,213.70592 76.6952561,213.70592 C72.5289328,213.70592 69.1514604,210.335659 69.1514604,206.158706 L69.1514604,194.854168 Z M95.5547453,194.854168 C95.5547453,190.685957 98.9406953,187.306954 103.098541,187.306954 C107.264864,187.306954 110.642337,190.677215 110.642337,194.854168 L110.642337,206.158706 C110.642337,210.326918 107.256387,213.70592 103.098541,213.70592 C98.9322177,213.70592 95.5547453,210.335659 95.5547453,206.158706 L95.5547453,194.854168 Z M121.95803,194.854168 C121.95803,190.685957 125.34398,187.306954 129.501826,187.306954 C133.668149,187.306954 137.045622,190.677215 137.045622,194.854168 L137.045622,206.158706 C137.045622,210.326918 133.659672,213.70592 129.501826,213.70592 C125.335503,213.70592 121.95803,210.335659 121.95803,206.158706 L121.95803,194.854168 Z M42.7481755,243.88082 C42.7481755,239.712609 46.1341255,236.333606 50.2919712,236.333606 C54.4582945,236.333606 57.8357669,239.703868 57.8357669,243.88082 L57.8357669,255.185359 C57.8357669,259.35357 54.4498169,262.732573 50.2919712,262.732573 C46.1256479,262.732573 42.7481755,259.362311 42.7481755,255.185359 L42.7481755,243.88082 Z M69.1514604,243.88082 C69.1514604,239.712609 72.5374104,236.333606 76.6952561,236.333606 C80.8615794,236.333606 84.2390518,239.703868 84.2390518,243.88082 L84.2390518,255.185359 C84.2390518,259.35357 80.8531018,262.732573 76.6952561,262.732573 C72.5289328,262.732573 69.1514604,259.362311 69.1514604,255.185359 L69.1514604,243.88082 Z M95.5547453,243.88082 C95.5547453,239.712609 98.9406953,236.333606 103.098541,236.333606 C107.264864,236.333606 110.642337,239.703868 110.642337,243.88082 L110.642337,255.185359 C110.642337,259.35357 107.256387,262.732573 103.098541,262.732573 C98.9322177,262.732573 95.5547453,259.362311 95.5547453,255.185359 L95.5547453,243.88082 Z M121.95803,243.88082 C121.95803,239.712609 125.34398,236.333606 129.501826,236.333606 C133.668149,236.333606 137.045622,239.703868 137.045622,243.88082 L137.045622,255.185359 C137.045622,259.35357 133.659672,262.732573 129.501826,262.732573 C125.335503,262.732573 121.95803,259.362311 121.95803,255.185359 L121.95803,243.88082 Z M42.7481755,292.907473 C42.7481755,288.739261 46.1341255,285.360258 50.2919712,285.360258 C54.4582945,285.360258 57.8357669,288.73052 57.8357669,292.907473 L57.8357669,304.212011 C57.8357669,308.380222 54.4498169,311.759225 50.2919712,311.759225 C46.1256479,311.759225 42.7481755,308.388964 42.7481755,304.212011 L42.7481755,292.907473 Z M69.1514604,292.907473 C69.1514604,288.739261 72.5374104,285.360258 76.6952561,285.360258 C80.8615794,285.360258 84.2390518,288.73052 84.2390518,292.907473 L84.2390518,304.212011 C84.2390518,308.380222 80.8531018,311.759225 76.6952561,311.759225 C72.5289328,311.759225 69.1514604,308.388964 69.1514604,304.212011 L69.1514604,292.907473 Z M95.5547453,292.907473 C95.5547453,288.739261 98.9406953,285.360258 103.098541,285.360258 C107.264864,285.360258 110.642337,288.73052 110.642337,292.907473 L110.642337,304.212011 C110.642337,308.380222 107.256387,311.759225 103.098541,311.759225 C98.9322177,311.759225 95.5547453,308.388964 95.5547453,304.212011 L95.5547453,292.907473 Z M121.95803,292.907473 C121.95803,288.739261 125.34398,285.360258 129.501826,285.360258 C133.668149,285.360258 137.045622,288.73052 137.045622,292.907473 L137.045622,304.212011 C137.045622,308.380222 133.659672,311.759225 129.501826,311.759225 C125.335503,311.759225 121.95803,308.388964 121.95803,304.212011 L121.95803,292.907473 Z"
                          id="Combined-Shape" fill="url(#linearGradient-4)"/>
                    <rect id="Rectangle-10" fill="url(#linearGradient-5)" x="95.5547453" y="89.2536491"
                          width="15.0875914" height="26.3989666" rx="7.54379568"/>
                    <rect id="Rectangle-10" fill="url(#linearGradient-5)" x="42.7481755" y="236.333606"
                          width="15.0875914" height="26.3989666" rx="7.54379568"/>
                    <rect id="Rectangle-10" fill="url(#linearGradient-5)" x="69.1514604" y="236.333606"
                          width="15.0875914" height="26.3989666" rx="7.54379568"/>
                </g>
                <g id="Group-6" transform="translate(114.900804, 408.878915)">
                    <rect id="Rectangle-11" fill="url(#linearGradient-9)" x="8.80109496" y="10.0567492"
                          width="169.735403" height="197.363703" rx="5"/>
                    <rect id="Rectangle-12" fill="url(#linearGradient-4)" x="31.432482" y="167.193455"
                          width="125.449982" height="10.0567492" rx="5"/>
                    <rect id="Rectangle-12" fill="url(#linearGradient-4)" x="31.432482" y="142.051582"
                          width="125.449982" height="10.0567492" rx="5"/>
                    <rect id="Rectangle-12" fill="url(#linearGradient-4)" x="31.432482" y="116.909709"
                          width="125.449982" height="10.0567492" rx="5"/>
                    <rect id="Rectangle-12" fill="url(#linearGradient-4)" x="31.432482" y="91.7678364"
                          width="125.449982" height="10.0567492" rx="5"/>
                    <rect id="Rectangle-12" fill="url(#linearGradient-4)" x="31.432482" y="66.6259634"
                          width="125.449982" height="10.0567492" rx="5"/>
                    <rect id="Rectangle-12" fill="url(#linearGradient-4)" x="31.432482" y="41.4840904"
                          width="125.449982" height="10.0567492" rx="5"/>
                    <rect id="Rectangle-8" fill="url(#linearGradient-10)" x="0.650016437" y="0.682545693"
                          width="188.594892" height="26.3082485" rx="5"/>
                </g>
            </g>
        </g>
    </g>
</svg>
